<svg width="16" height="16" xmlns="http://www.w3.org/2000/svg" viewBox="0 0 54 54"><path d="m50.58 22.76-.95-.4a3.12 3.12 0 0 1 0-5.8l.95-.41a.69.69 0 0 0 .37-.89l-.7-1.69-1.13-2.75a.71.71 0 0 0-.12-.22.67.67 0 0 0-.74-.15l-.95.39a3.05 3.05 0 0 1-3.43-.65 3.15 3.15 0 0 1-.65-3.45l.4-1a.69.69 0 0 0-.36-.89l-4.45-1.8a.67.67 0 0 0-.88.37l-.41 1a3.08 3.08 0 0 1-5.75 0l-.41-1a.68.68 0 0 0-.89-.37L26.07 4.9a.68.68 0 0 0-.37.89l.39 1A3.1 3.1 0 0 1 22 10.85l-.95-.4a.68.68 0 0 0-.89.37l-1.83 4.44a.69.69 0 0 0 .37.89l1 .41a3.12 3.12 0 0 1 0 5.79l-.95.42a.69.69 0 0 0-.38.89l1.83 4.44a.7.7 0 0 0 .89.37l1-.4a3.05 3.05 0 0 1 3.42.65 3.12 3.12 0 0 1 .64 3.45l-.4 1a.68.68 0 0 0 .37.89l4.41 1.84a.68.68 0 0 0 .89-.36l.4-1a3.08 3.08 0 0 1 5.76 0l.4 1a.68.68 0 0 0 .89.36l4.36-1.9a.68.68 0 0 0 .37-.89l-.4-1a3.15 3.15 0 0 1 .65-3.45 3.06 3.06 0 0 1 3.42-.65l.95.4a.69.69 0 0 0 .89-.37L51 23.65a.69.69 0 0 0-.42-.89ZM36.89 24.9a5.84 5.84 0 0 1-7.65-3.19A5.91 5.91 0 0 1 32.41 14a5.84 5.84 0 0 1 7.65 3.18 5.91 5.91 0 0 1-3.17 7.72ZM25.82 37.11h-.72a2.14 2.14 0 0 1-2-1.33 2.21 2.21 0 0 1 .5-2.41l.51-.51a.5.5 0 0 0 0-.68l-2.36-2.38a.46.46 0 0 0-.67 0l-.52.52a2.16 2.16 0 0 1-2.39.5 2.19 2.19 0 0 1-1.33-2.06V28a.47.47 0 0 0-.47-.48H13a.48.48 0 0 0-.48.47v.73a2.16 2.16 0 0 1-3.72 1.56l-.51-.52a.46.46 0 0 0-.67 0l-2.38 2.41a.48.48 0 0 0 0 .68l.5.51a2.19 2.19 0 0 1 .5 2.41 2.14 2.14 0 0 1-2 1.33h-.76a.48.48 0 0 0-.48.48V41a.48.48 0 0 0 .48.48h.72a2.15 2.15 0 0 1 2 1.34 2.17 2.17 0 0 1-.5 2.4l-.51.52a.48.48 0 0 0 0 .67l2.36 2.38a.46.46 0 0 0 .67 0l.52-.51a2.16 2.16 0 0 1 2.39-.5 2.18 2.18 0 0 1 1.37 2.02v.72a.49.49 0 0 0 .5.48h3.34a.47.47 0 0 0 .48-.48v-.72a2.18 2.18 0 0 1 1.33-2.06 2.16 2.16 0 0 1 2.39.5l.51.52a.46.46 0 0 0 .67 0l2.37-2.38a.48.48 0 0 0 0-.67l-.51-.53a2.19 2.19 0 0 1-.5-2.4 2.15 2.15 0 0 1 2-1.34h.72a.48.48 0 0 0 .5-.44v-3.41a.47.47 0 0 0-.48-.48Zm-11.17 6.28a4.12 4.12 0 1 1 4.09-4.12 4.1 4.1 0 0 1-4.09 4.12Z"/></svg>