<svg width="16" height="16" xmlns="http://www.w3.org/2000/svg" viewBox="0 0 54 54"><path d="M44.94 9a6.44 6.44 0 0 1-.87 3.82l-.7 1.18H46v28H8V14h20l2.67-4.5L31 9H3v38h48V9Z"/><path d="M26.26 16.97h-15.3v22h9.12l-.02-1.98-.1-8.78v-.56l.28-.48 6.02-10.2zm5.45 16.77-.28.48-.5.26-7.92 4.25-.45.24h20.4v-22H41.6l-9.89 16.77z"/><path d="M22.06 37 30 32.72l10.41-17.67 1.16-2 .77-1.31a4.48 4.48 0 0 0-1.69-6.19 4.69 4.69 0 0 0-6.33 1.66l-.77 1.31-1.16 2L22 28.19ZM36.32 8.37a2.36 2.36 0 0 1 3.17-.83 2.25 2.25 0 0 1 .85 3.1L39.56 12l-4-2.27Zm-1.93 3.28 4 2.26L28.31 31l-1.46.78-2.55-1.4v-1.6Z"/></svg>