<?xml version="1.0" encoding="UTF-8" standalone="no"?>
<!DOCTYPE svg PUBLIC "-//W3C//DTD SVG 1.1//EN" "http://www.w3.org/Graphics/SVG/1.1/DTD/svg11.dtd">
<svg width="100%" height="100%" viewBox="0 0 585 149" version="1.1" xmlns="http://www.w3.org/2000/svg" xmlns:xlink="http://www.w3.org/1999/xlink" xml:space="preserve" xmlns:serif="http://www.serif.com/" style="fill-rule:evenodd;clip-rule:evenodd;stroke-linejoin:round;stroke-miterlimit:2;">
    <g transform="matrix(1,0,0,1,-14995.1,-20020.4)">
        <g id="Redesign-Logo-02" serif:id="Redesign Logo 02" transform="matrix(0.14528,0,0,0.164349,13607.9,15984.1)">
            <rect x="9548.81" y="24559.8" width="4020.04" height="906.16" style="fill:none;"/>
            <clipPath id="_clip1">
                <rect x="9548.81" y="24559.8" width="4020.04" height="906.16"/>
            </clipPath>
            <g clip-path="url(#_clip1)">
                <g transform="matrix(3.49812,0,0,3.18357,12263.5,25787.8)">
                    <g>
                        <path d="M-289.829,-124.632C-325.727,-124.632 -353.95,-133.281 -374.5,-150.579C-395.05,-167.878 -405.325,-192.134 -405.325,-223.349C-405.325,-254.304 -396.155,-278.756 -377.817,-296.705C-359.478,-314.653 -333.27,-323.627 -299.194,-323.627C-276.823,-323.627 -257.834,-319.465 -242.227,-311.141C-226.619,-302.818 -214.783,-291.307 -206.72,-276.61C-198.656,-261.913 -194.624,-245.33 -194.624,-226.861L-194.624,-203.06L-347.162,-203.06C-340.559,-179.307 -320.292,-171.216 -304.9,-167.872C-298.848,-166.557 -285.032,-164.69 -268.988,-169.118C-255.172,-172.931 -244.169,-181.412 -239.49,-186.081L-211.922,-156.011C-217.725,-149.27 -227.449,-140.32 -244.49,-133.076C-260.859,-126.118 -282.809,-124.632 -289.829,-124.632ZM-250.421,-241.298C-251.201,-253.784 -255.883,-263.474 -264.467,-270.367C-273.051,-277.26 -284.887,-280.707 -299.974,-280.707C-314.801,-280.707 -326.507,-277.195 -335.091,-270.172C-343.675,-263.148 -348.358,-253.524 -349.138,-241.298L-250.421,-241.298Z" style="fill:rgb(16,16,16);fill-rule:nonzero;"/>
                        <g transform="matrix(1,0,0,0.862505,0,-12.0882)">
                            <path d="M-161.848,-396.137L-102.93,-418.833L-102.93,-130.485L-161.848,-130.485L-161.848,-396.137Z" style="fill:rgb(16,16,16);fill-rule:nonzero;"/>
                        </g>
                        <path d="M7.883,-124.632C-15.008,-124.632 -33.672,-130.42 -48.109,-141.995C-62.545,-153.571 -69.764,-169.373 -69.764,-189.403C-69.764,-210.213 -62.871,-226.406 -49.084,-237.981C-35.297,-249.557 -15.788,-255.345 9.444,-255.345C20.629,-255.345 31.295,-254.174 41.439,-251.833C51.584,-249.492 60.559,-246.24 68.362,-242.078L68.362,-246.761C68.362,-258.466 64.2,-267.05 55.876,-272.513C47.552,-277.976 34.806,-280.707 17.638,-280.707C-5.253,-280.707 -26.323,-276.415 -45.572,-267.831L-45.572,-310.751C-37.248,-314.393 -26.453,-317.45 -13.187,-319.921C0.08,-322.392 13.346,-323.627 26.612,-323.627C60.429,-323.627 85.661,-316.669 102.309,-302.752C118.957,-288.836 127.281,-269.391 127.281,-244.419L127.281,-130.485L71.874,-130.485L71.874,-147.653C56.006,-132.306 34.676,-124.632 7.883,-124.632ZM23.881,-163.651C33.506,-163.651 42.22,-165.472 50.024,-169.113C57.827,-172.755 63.94,-177.828 68.362,-184.331L68.362,-203.06C55.096,-211.904 40.529,-216.326 24.661,-216.326C13.736,-216.326 5.347,-214.05 -0.506,-209.498C-6.358,-204.946 -9.285,-198.247 -9.285,-189.403C-9.285,-181.079 -6.424,-174.706 -0.701,-170.284C5.022,-165.862 13.216,-163.651 23.881,-163.651Z" style="fill:rgb(16,16,16);fill-rule:nonzero;"/>
                        <path d="M166.299,-317.775L223.267,-317.775L223.267,-294.754C231.851,-304.378 242.061,-311.597 253.896,-316.409C265.732,-321.221 278.153,-323.627 291.159,-323.627C316.651,-323.627 335.706,-316.799 348.322,-303.143C360.938,-289.486 367.246,-271.082 367.246,-247.931L367.246,-130.485L308.327,-130.485L308.327,-241.298C308.327,-265.49 297.142,-277.585 274.771,-277.585C264.887,-277.585 255.652,-275.179 247.068,-270.367C238.484,-265.555 231.2,-258.466 225.218,-249.102L225.218,-130.485L166.299,-130.485L166.299,-317.775Z" style="fill:rgb(16,16,16);fill-rule:nonzero;"/>
                    </g>
                </g>
                <g transform="matrix(6.88324,0,0,6.08462,-56586.9,-117028)">
                    <path d="M9754.65,23308.3L9754.65,23380.9C9754.65,23400.6 9738.64,23416.6 9718.92,23416.6L9646.3,23416.6C9626.58,23416.6 9610.57,23400.6 9610.57,23380.9L9610.57,23308.3C9610.57,23288.6 9626.58,23272.5 9646.3,23272.5L9718.92,23272.5C9738.64,23272.5 9754.65,23288.6 9754.65,23308.3ZM9667.49,23278.8L9646.3,23278.8C9643.39,23278.8 9640.58,23279.2 9637.92,23280C9646.81,23282.2 9655.54,23284.6 9664.15,23287.1C9665.24,23284.4 9666.35,23281.6 9667.49,23278.8ZM9629.15,23284.3C9621.68,23289.7 9616.82,23298.4 9616.82,23308.3L9616.82,23380.9C9616.82,23385.5 9617.89,23389.9 9619.8,23393.8C9625.6,23386.6 9631.72,23379.4 9638.13,23372.3C9643.39,23347.9 9650.82,23322.5 9660.77,23295.9C9662.78,23296.5 9664.78,23297.1 9666.78,23297.7C9651.89,23337.3 9642.68,23374.4 9637.99,23409.2C9640.63,23410 9643.41,23410.4 9646.3,23410.4L9718.92,23410.4C9735.19,23410.4 9748.4,23397.2 9748.4,23380.9L9748.4,23324.1C9736.69,23319.2 9725.15,23314.6 9713.62,23310.3C9704.97,23317.2 9696.57,23324.3 9688.44,23331.5C9674,23344.2 9660.43,23357.4 9647.92,23370.8C9648.81,23366.8 9649.75,23362.8 9650.76,23358.8C9661.3,23347.9 9672.51,23337.2 9684.3,23326.8C9700.71,23312.3 9718.24,23298.2 9736.64,23284.7C9731.7,23281 9725.57,23278.8 9718.92,23278.8L9674.25,23278.8C9672.85,23282.2 9671.48,23285.6 9670.16,23288.9C9676.85,23290.9 9683.49,23293.1 9690.09,23295.3C9693.95,23296.6 9697.8,23297.9 9701.64,23299.3C9704.18,23300.2 9706.73,23301.1 9709.27,23302C9707.36,23303.5 9705.47,23305 9703.58,23306.6C9702.24,23306.1 9700.9,23305.6 9699.56,23305.1C9695.75,23303.8 9691.93,23302.5 9688.1,23301.2C9668.94,23294.8 9649.52,23289.1 9629.15,23284.3ZM9623.35,23399.4C9625.74,23402.4 9628.68,23404.8 9632.02,23406.7C9633.04,23399.4 9634.24,23392 9635.66,23384.5C9631.41,23389.4 9627.3,23394.4 9623.35,23399.4ZM9748.4,23317.3L9748.4,23308.3C9748.4,23300.9 9745.72,23294.2 9741.27,23289.1C9733.81,23294.5 9726.48,23300.1 9719.32,23305.7C9728.96,23309.4 9738.63,23313.2 9748.4,23317.3Z" style="fill:rgb(16,16,16);"/>
                </g>
                <g transform="matrix(6.88324,0,0,6.08462,-71178.3,-103721)">
                    <rect x="11411.5" y="20954.4" width="1216.6" height="406.1" style="fill:none;"/>
                </g>
            </g>
        </g>
    </g>
</svg>
