<svg width="16" height="16" xmlns="http://www.w3.org/2000/svg" viewBox="0 0 54 54"><path d="M21.33 27.49a7.83 7.83 0 0 1-2.16 5.39h15.66A7.87 7.87 0 0 1 36.06 21a6.06 6.06 0 0 0-4.68-2.25H22.6A6 6 0 0 0 17.93 21a7.87 7.87 0 0 1 3.4 6.49ZM27 15.74a6.37 6.37 0 1 0-6.33-6.38A6.34 6.34 0 0 0 27 15.74Z"/><path d="M13.49 33.86a6.37 6.37 0 1 0-6.33-6.37 6.35 6.35 0 0 0 6.33 6.37Zm4.38 3.02H9.09A6.13 6.13 0 0 0 3 43v8h21v-8a6.15 6.15 0 0 0-6.13-6.12Zm16.31-9.39a6.34 6.34 0 1 0 6.33-6.37 6.35 6.35 0 0 0-6.33 6.37Zm10.71 9.39h-8.78A6.13 6.13 0 0 0 30 43v8h21v-8a6.15 6.15 0 0 0-6.11-6.12Z"/></svg>