<svg width="16" height="16" xmlns="http://www.w3.org/2000/svg" viewBox="0 0 54 54"><path d="M33.79 22.79v-9.58h-9.58V18H29v4.79h4.79z"/><path d="M20.11 9.11h17.78v17.78H29V31h13V5H16v13h4.11V9.11z"/><path d="M45.59 34.44a3 3 0 0 0-4.13-1.1l-7.61 4.35-13.26-1.91S24 26.92 24.37 25a3.05 3.05 0 0 0 .18-1 2.91 2.91 0 0 0-5.27-1.75l-.05.06c-4 5.59-9.66 11.92-9.75 12.43l-.07.42a2.87 2.87 0 0 0-.05.31L8 43.84a1.76 1.76 0 0 0 .43 1.49c1 1.46 4.83 3.08 8.18 3.67h7.79a6.88 6.88 0 0 0 1.48-.19 3 3 0 0 0 1.41-.4l1.15-.65 1-.52c3.87-2.09 8.15-4.57 9.74-5.58l5.28-3a3 3 0 0 0 1.13-4.22Z"/></svg>