<?xml version="1.0" encoding="UTF-8" standalone="no"?>
<!-- Generator: Adobe Illustrator 25.3.0, SVG Export Plug-In . SVG Version: 6.00 Build 0)  -->

<svg
   xmlns:dc="http://purl.org/dc/elements/1.1/"
   xmlns:cc="http://creativecommons.org/ns#"
   xmlns:rdf="http://www.w3.org/1999/02/22-rdf-syntax-ns#"
   xmlns:svg="http://www.w3.org/2000/svg"
   xmlns="http://www.w3.org/2000/svg"
   xmlns:sodipodi="http://sodipodi.sourceforge.net/DTD/sodipodi-0.dtd"
   xmlns:inkscape="http://www.inkscape.org/namespaces/inkscape"
   version="1.1"
   id="Ebene_1"
   x="0px"
   y="0px"
   viewBox="0 0 771.9 324.4"
   style="enable-background:new 0 0 771.9 324.4;"
   xml:space="preserve"
   sodipodi:docname="studip-keyvisual.svg"
   inkscape:version="0.92.5 (2060ec1f9f, 2020-04-08)"><metadata
   id="metadata76"><rdf:RDF><cc:Work
       rdf:about=""><dc:format>image/svg+xml</dc:format><dc:type
         rdf:resource="http://purl.org/dc/dcmitype/StillImage" /><dc:title></dc:title></cc:Work></rdf:RDF></metadata><defs
   id="defs74">
	
	
	
	
	
	
	
	
	
	
<style
   id="style990">.a{fill:#28497c;}</style><style
   id="style1021">.cls-1{fill:#28497c;}</style><style
   id="style1039">.a{fill:#28497c;}</style><style
   id="style1067">.cls-1{fill:#28497c;}</style><style
   id="style1120">.cls-1{fill:#28497c;}</style><style
   id="style1144">.cls-1{fill:#28497c;}</style></defs><sodipodi:namedview
   pagecolor="#ffffff"
   bordercolor="#666666"
   borderopacity="1"
   objecttolerance="10"
   gridtolerance="10"
   guidetolerance="10"
   inkscape:pageopacity="0"
   inkscape:pageshadow="2"
   inkscape:window-width="3440"
   inkscape:window-height="1376"
   id="namedview72"
   showgrid="false"
   inkscape:zoom="1.6415796"
   inkscape:cx="542.84272"
   inkscape:cy="134.05496"
   inkscape:window-x="1920"
   inkscape:window-y="27"
   inkscape:window-maximized="1"
   inkscape:current-layer="Ebene_1" />
<style
   type="text/css"
   id="style2">
	.st0{fill:#FFFFFF;}
	.st1{fill:#E7EBF0;}
	.st2{fill:#28497C;}
	.st3{fill:#D60000;}
</style>
<ellipse
   class="st0"
   cx="379.5"
   cy="220.1"
   rx="154.9"
   ry="89.2"
   id="ellipse4" />
<path
   class="st1"
   d="M708.1,155.7c-30.1,0-54.9,23.2-57.3,52.7H538.4c-1.9-8.7-5.9-17.2-11.8-25.1l45.3-10.7  c6.4,13,19.7,21.9,35.1,21.9c21.6,0,39.1-17.5,39.1-39.1c0-21.6-17.5-39.1-39.1-39.1S568,133.7,568,155.3c0,2.7,0.3,5.3,0.8,7.9  l-49.3,11.7c-7.4-7.6-16.7-14.6-27.7-20.8c-1.3-0.7-2.7-1.5-4.1-2.2l101-62.3c8.8,10.8,22.2,17.6,37.2,17.6  c26.6,0,48.2-21.6,48.2-48.2s-21.6-48.2-48.2-48.2c-26.6,0-48.2,21.6-48.2,48.2c0,8.1,2,15.7,5.5,22.4l-106.1,65.4  c-6.2-2.7-12.6-5.2-19.3-7.3l46.9-47.9c3.7,2.3,8.1,3.7,12.8,3.7c13.2,0,23.9-10.7,23.9-23.9s-10.7-23.9-23.9-23.9  s-23.9,10.7-23.9,23.9c0,5,1.5,9.6,4.1,13.4l-50.5,51.6c-9.3-2.5-19.1-4.4-29.1-5.8l21.3-51.8c3.1,0.8,6.4,1.2,9.7,1.2  c21.5,0,38.8-17.4,38.8-38.8S470.5,2.2,449,2.2c-21.5,0-38.8,17.4-38.8,38.8c0,14.6,8.1,27.3,20,34l-22.3,54.3  c-9.3-0.9-18.7-1.4-28.3-1.4c-4.1,0-8.2,0.1-12.2,0.3l-6.6-34.5c7.7-3.3,13.1-10.9,13.1-19.8c0-11.9-9.6-21.5-21.5-21.5  c-11.9,0-21.5,9.6-21.5,21.5c0,11.5,9,20.9,20.3,21.5l6.4,33.5c-12.2,1-24.2,2.7-35.5,5.2l-18.9-23.8c9.5-9,15.4-21.7,15.4-35.9  c0-27.3-22.1-49.5-49.5-49.5c-27.3,0-49.5,22.1-49.5,49.5s22.1,49.5,49.5,49.5c9.7,0,18.7-2.8,26.3-7.6l16.2,20.4  c-16.1,4.3-31,10.2-44,17.5c-1.9,1.1-3.7,2.1-5.5,3.2L201.1,131c1-3.5,1.5-7.1,1.5-10.9c0-21.9-17.7-39.6-39.6-39.6  s-39.6,17.7-39.6,39.6c0,13.3,6.5,25,16.5,32.2l-35.3-8.3c0.3-2.2,0.5-4.5,0.5-6.8c0-27.3-22.1-49.4-49.4-49.4  c-27.3,0-49.4,22.1-49.4,49.4c0,27.3,22.1,49.4,49.4,49.4c21.5,0,39.8-13.8,46.6-33L232,183.9c-8.2,11.2-12.5,23.5-12.5,36.1  c0,1,0,2.1,0.1,3.1l-20.3,1.9c-10.6-11.8-25.9-19.3-43-19.3c-21,0-39.3,11.2-49.4,27.9l-29,2.7c-3.1-11.6-13.7-20.2-26.3-20.2  c-15,0-27.2,12.2-27.2,27.2s12.2,27.2,27.2,27.2c14.1,0,25.7-10.7,27.1-24.5l23.3-2.2c-2.2,6.1-3.4,12.7-3.4,19.5  c0,31.9,25.8,57.7,57.7,57.7s57.7-25.8,57.7-57.7c0-1.9-0.1-3.9-0.3-5.8l16.6-4c5.9,8.8,14.2,16.9,24.6,24.3  c-1.7,3.7-2.6,7.9-2.6,12.2c0,16.5,13.3,29.8,29.8,29.8c12,0,22.3-7.1,27-17.2c21.7,6.1,45.6,9.3,70.5,9.3c39,0,76-7.9,105.1-22.4  c6.6,11.3,18.8,18.9,32.8,18.9c19.6,0,35.8-14.9,37.8-34l31.3,9.9c-0.1,1.1-0.2,2.1-0.2,3.2c0,15,12.2,27.2,27.2,27.2  c15,0,27.2-12.2,27.2-27.2c0-15-12.2-27.2-27.2-27.2c-10.5,0-19.6,5.9-24.1,14.6l-34.6-11c-1.9-11.2-8.7-20.6-18.1-26.2  c2-5.8,3-11.8,3-17.9c0-0.6,0-1.2,0-1.8h111.2c2.5,29.4,27.2,52.6,57.3,52.6c31.8,0,57.5-25.8,57.5-57.5S739.9,155.7,708.1,155.7z   M169.4,159.2c11.9-1.9,22-9.1,27.8-19.1l55,23.9c-4.9,3.7-9.4,7.6-13.2,11.6L169.4,159.2z M211.8,248.1c-1.4-4.9-3.3-9.5-5.8-13.8  l15-1.4c1,4.1,2.4,8.1,4.3,12L211.8,248.1z M517.4,232.7c-21,0-38,17-38,38c0,3.5,0.5,6.8,1.3,10c-27.8,14-63.4,21.7-101.2,21.7  c-24,0-47.1-3.1-67.9-8.9c0.1-1,0.2-2.1,0.2-3.1c0-16.5-13.3-29.8-29.8-29.8c-8.6,0-16.3,3.6-21.7,9.4  c-20.2-14.4-31.1-31.7-31.1-49.9c0-21.4,15.3-41.8,42.9-57.4c28.6-16.1,66.7-24.9,107.3-24.9s78.7,8.9,107.3,24.9  c27.7,15.6,42.9,36,42.9,57.4c0,4.8-0.8,9.5-2.2,14.1C524.4,233.2,520.9,232.7,517.4,232.7z"
   id="path6" />
<g
   transform="translate(-1171.3059,-293.3131)"
   id="Gruppe_1913">
		<g
   transform="translate(1210,400)"
   id="Gruppe_1880">
			<path
   style="fill:#28497c"
   inkscape:connector-curvature="0"
   d="M 23.7,54.2 36.1,42.8 H 23.7 Z"
   class="st2"
   id="Pfad_2468" />
			<path
   style="fill:#28497c"
   inkscape:connector-curvature="0"
   d="M -5,-0.4 V 57.1 H 20.3 V 39.4 H 38.1 V -0.4 Z m 39.4,35.8 h -18 v 18 H -1.3 V 3.1 h 35.6 z"
   class="st2"
   id="Pfad_2469" />
			<rect
   style="fill:#28497c"
   height="10.8"
   width="10.8"
   class="st2"
   y="6.6999998"
   x="2.0999999"
   id="Rechteck_2081" />
			<rect
   style="fill:#28497c"
   height="3.5999999"
   width="14.4"
   class="st2"
   y="6.6999998"
   x="16.5"
   id="Rechteck_2082" />
			<rect
   style="fill:#28497c"
   height="3.5999999"
   width="14.4"
   class="st2"
   y="13.9"
   x="16.5"
   id="Rechteck_2083" />
			<rect
   style="fill:#28497c"
   height="3.5999999"
   width="28.700001"
   class="st2"
   y="21.1"
   x="2.0999999"
   id="Rechteck_2084" />
			<rect
   style="fill:#28497c"
   height="3.5999999"
   width="28.700001"
   class="st2"
   y="28.200001"
   x="2.0999999"
   id="Rechteck_2085" />
		</g>
	</g>
<g
   transform="matrix(0.71289471,0,0,0.7136833,289.45948,113.65321)"
   id="g863"><path
     inkscape:connector-curvature="0"
     style="fill:#28497c;fill-opacity:1"
     id="path819"
     d="m 110.5,17.6 c -35.3,6.2 -66.2,29 -81.9,60.3 -7,13.8 -10.6,27 -12.2,43.8 l -0.7,7.3 h 34 l 0.7,-6.9 C 53.1,94.6 69.7,70.7 94.5,58.5 106.1,52.7 113,51 126.5,50.3 186.9,47.5 228,112.1 200,166 c -12.5,23.8 -36.3,39.9 -63.1,42.6 l -6.9,0.7 V 243 h 3.4 c 11.9,0 31.4,-4.8 44.3,-10.9 57,-27.1 81.2,-94.4 54.2,-151 -11.1,-23.4 -28.5,-41.4 -51,-52.7 -22.1,-11 -47.2,-14.9 -70.4,-10.8 z" /><path
     inkscape:connector-curvature="0"
     style="fill:#d60000;fill-opacity:1"
     id="path2"
     d="M 117.5,88.3 C 103.2,93.1 93.2,103 89,116.8 c -6.5,20.8 3.4,42.5 23.6,51.9 5.3,2.5 7,2.8 16.9,2.8 10.3,0 11.4,-0.2 17.8,-3.2 8.9,-4.2 16.8,-12.1 21,-21 3,-6.4 3.2,-7.5 3.2,-17.8 0,-10.3 -0.2,-11.4 -3.2,-17.7 -4.4,-9.3 -10.9,-16 -20.1,-20.5 -6.8,-3.4 -8.3,-3.8 -17.1,-4 -6,-0.2 -11.1,0.2 -13.6,1 z" /></g><g
   style="fill:#28497c"
   id="g988"
   transform="matrix(0.87664594,0,0,0.87664594,583.81825,129.79784)"><g
     id="Brainstorm"><path
       id="path958"
       d="M 28.55,25.76 C 17.09,24.56 8.36,18.76 9.05,12.89 9.74,7.02 19.6,3.17 31.05,4.36 A 39,39 0 0 1 36.23,5.29 40.5,40.5 0 0 0 26.67,3.12 C 14.38,1.84 3.82,5.93 3.07,12.27 2.32,18.61 11.69,24.78 24,26.06 a 40.05,40.05 0 0 0 9.83,-0.14 39.25,39.25 0 0 1 -5.28,-0.16 z"
       inkscape:connector-curvature="0" /><path
       id="path960"
       d="m 25.65,6.28 c 11.44,1.38 20.06,7.28 19.26,13.17 -0.8,5.89 -10.72,9.55 -22.16,8.18 a 38.62,38.62 0 0 1 -5.16,-1 40,40 0 0 0 9.52,2.33 C 39.38,30.42 50,26.5 50.88,20.18 51.76,13.86 42.49,7.53 30.22,6.05 a 40.49,40.49 0 0 0 -9.84,0 39.6,39.6 0 0 1 5.27,0.23 z"
       inkscape:connector-curvature="0" /><path
       id="path962"
       d="m 28.32,38.84 c -10,-1 -17.57,-6.05 -17,-11.19 A 5.46,5.46 0 0 1 12.59,25 C 11.94,24.75 11.2,24.45 10.37,24.08 9.54,23.71 9,23.41 8.46,23.13 a 6.42,6.42 0 0 0 -2.31,4 c -0.64,5.51 7.5,10.89 18.2,12 A 35.62,35.62 0 0 0 32.9,39 35.58,35.58 0 0 1 28.32,38.84 Z"
       inkscape:connector-curvature="0" /><path
       id="path964"
       d="m 42.91,29.36 c -0.8,0.31 -1.7,0.63 -2.47,0.84 a 23.13,23.13 0 0 1 -2.53,0.51 4.88,4.88 0 0 1 0.67,1.4 c 1.35,5 -5.45,11 -15.18,13.27 a 33.74,33.74 0 0 1 -4.52,0.74 35.45,35.45 0 0 0 8.5,-1 C 37.81,42.65 45.1,36.27 43.66,30.9 a 5.5,5.5 0 0 0 -0.75,-1.54 z"
       inkscape:connector-curvature="0" /><path
       id="path966"
       d="m 14.59,43 a 5.56,5.56 0 0 1 2.72,-4.15 15.4,15.4 0 0 1 -1.51,-0.49 l -1,-0.39 C 12.7,39.21 11.33,40.9 11.23,42.84 11,47 16.46,50.58 23.45,50.91 A 19.82,19.82 0 0 0 29,50.4 19.44,19.44 0 0 1 26,50.52 C 19.51,50.21 14.39,46.83 14.59,43 Z"
       inkscape:connector-curvature="0" /><path
       id="path968"
       d="m 42.61,29.57 c -0.5,0 -1.75,0.93 -2.21,0.9 -0.46,-0.03 -1.87,0.42 -2.33,0.34 A 4.56,4.56 0 0 1 38.28,32 c -0.12,2.62 -4.69,4.65 -10.41,4.15 a 18.66,18.66 0 0 1 -2.59,-0.43 11.23,11.23 0 0 0 5,1.51 c 6.15,0.52 12.38,-1.67 12.69,-4.84 a 26.14,26.14 0 0 0 -0.36,-2.82 z"
       inkscape:connector-curvature="0" /><path
       id="path970"
       d="M 29.24,8.71 C 20.9,6.71 13.08,9.03 11.78,13.88 A 6,6 0 0 0 12.25,18 c 0,-0.11 0,-0.23 0,-0.34 0.81,-4.73 8.05,-7.55 16.16,-6.32 8.11,1.23 13.77,5.88 13.24,10.51 a 6.36,6.36 0 0 0 0.33,-0.7 C 43.28,16.25 37.58,10.7 29.24,8.71 Z"
       inkscape:connector-curvature="0" /></g></g><g
   id="g1019"
   transform="matrix(0.875,0,0,0.875,494.2388,244.6728)"><path
     id="path994"
     d="m 21.33,27.49 a 7.83,7.83 0 0 1 -2.16,5.39 H 34.83 A 7.87,7.87 0 0 1 36.06,21 6.06,6.06 0 0 0 31.38,18.75 H 22.6 a 6,6 0 0 0 -4.67,2.25 7.87,7.87 0 0 1 3.4,6.49 z"
     class="a"
     inkscape:connector-curvature="0"
     style="fill:#28497c" /><path
     id="path996"
     d="M 27,15.74 A 6.37,6.37 0 1 0 20.67,9.36 6.34,6.34 0 0 0 27,15.74 Z"
     class="a"
     inkscape:connector-curvature="0"
     style="fill:#28497c" /><path
     id="path998"
     d="m 13.49,33.86 a 6.37,6.37 0 1 0 -6.33,-6.37 6.35,6.35 0 0 0 6.33,6.37 z"
     class="a"
     inkscape:connector-curvature="0"
     style="fill:#28497c" /><path
     id="path1000"
     d="M 17.87,36.88 H 9.09 A 6.13,6.13 0 0 0 3,43 v 8 h 21 v -8 a 6.15,6.15 0 0 0 -6.13,-6.12 z"
     class="a"
     inkscape:connector-curvature="0"
     style="fill:#28497c" /><path
     id="path1002"
     d="m 34.18,27.49 a 6.34,6.34 0 1 0 6.33,-6.37 6.35,6.35 0 0 0 -6.33,6.37 z"
     class="a"
     inkscape:connector-curvature="0"
     style="fill:#28497c" /><path
     id="path1004"
     d="M 44.89,36.88 H 36.11 A 6.13,6.13 0 0 0 30,43 v 8 h 21 v -8 a 6.15,6.15 0 0 0 -6.11,-6.12 z"
     class="a"
     inkscape:connector-curvature="0"
     style="fill:#28497c" /></g><g
   id="network"
   transform="matrix(1.3541663,0,0,1.3541663,116.55471,227.68475)"><path
     id="path1025"
     d="M 51,30.43 A 3.42,3.42 0 0 0 47.57,27 3.36,3.36 0 0 0 44.66,28.73 H 28.71 V 23.05 A 3.39,3.39 0 0 0 30.43,20.14 3.44,3.44 0 0 0 27,16.71 3.36,3.36 0 0 0 24.1,18.43 H 18.41 V 9.34 a 3.36,3.36 0 0 0 1.73,-2.91 3.43,3.43 0 1 0 -6.85,0 3.38,3.38 0 0 0 1.71,2.89 v 9.11 H 9.33 a 3.38,3.38 0 0 0 -2.9,-1.72 3.43,3.43 0 0 0 0,6.86 3.39,3.39 0 0 0 2.9,-1.71 H 15 v 5.68 a 3.38,3.38 0 0 0 -1.69,2.89 3.43,3.43 0 0 0 3.42,3.43 3.38,3.38 0 0 0 2.9,-1.7 h 5.68 v 12.51 a 3.38,3.38 0 0 0 -1.72,2.9 3.43,3.43 0 0 0 6.86,0 3.38,3.38 0 0 0 -1.72,-2.9 V 32.16 H 39 v 9.07 a 3.36,3.36 0 0 0 -1.73,2.91 3.43,3.43 0 1 0 6.85,0 3.37,3.37 0 0 0 -1.7,-2.89 v -9.09 h 2.24 a 3.37,3.37 0 0 0 2.89,1.7 3.43,3.43 0 0 0 3.45,-3.43 z m -25.71,-1.7 h -5.66 a 3.29,3.29 0 0 0 -1.22,-1.21 v -5.66 h 5.69 a 3.39,3.39 0 0 0 1.19,1.19 z"
     class="cls-1"
     inkscape:connector-curvature="0"
     style="fill:#28497c" /><circle
     id="circle1027"
     r="5.1399999"
     cy="11.57"
     cx="35.57"
     class="cls-1"
     style="fill:#28497c" /></g><g
   id="g1065"
   transform="matrix(1.2355773,0,0,1.2355773,592.70276,23.385552)"><path
     id="path1043"
     d="m 32.5,43 h -11 a 1.5,1.5 0 0 0 0,3 h 11 a 1.5,1.5 0 0 0 0,-3 z"
     class="a"
     inkscape:connector-curvature="0"
     style="fill:#28497c" /><path
     id="path1045"
     d="m 31.5,48 h -9 a 1.5,1.5 0 0 0 0,3 h 9 a 1.5,1.5 0 0 0 0,-3 z"
     class="a"
     inkscape:connector-curvature="0"
     style="fill:#28497c" /><path
     id="path1047"
     d="M 27,3 A 18.54,18.54 0 0 0 25,3.11 17,17 0 0 0 18.05,34.48 2,2 0 0 1 19,36.13 v 3.34 A 1.5,1.5 0 0 0 20.5,41 h 13 A 1.5,1.5 0 0 0 35,39.5 V 36.12 A 2,2 0 0 1 35.9,34.45 17,17 0 0 0 27,3 Z m 7.33,28.92 A 5,5 0 0 0 32,36.12 V 38 H 22 V 36.13 A 5,5 0 0 0 19.67,31.89 14,14 0 0 1 25.37,6.06 14.84,14.84 0 0 1 27,6 14,14 0 0 1 34.33,31.92 Z"
     class="a"
     inkscape:connector-curvature="0"
     style="fill:#28497c" /><path
     id="path1049"
     d="M 32.39,9.05 A 12.51,12.51 0 0 0 27.24,8 a 12.66,12.66 0 0 0 -10.37,5.4 1.73,1.73 0 0 0 0.42,2.41 1.69,1.69 0 0 0 1,0.32 1.73,1.73 0 0 0 1.42,-0.74 9.21,9.21 0 0 1 7.54,-3.93 9.08,9.08 0 0 1 3.74,0.8 1.7301517,1.7301517 0 1 0 1.41,-3.16 z"
     class="a"
     inkscape:connector-curvature="0"
     style="fill:#28497c" /><path
     id="path1051"
     d="m 17,16.31 a 1.73,1.73 0 0 0 -2,1.27 12.38,12.38 0 0 0 -0.37,3 12.68,12.68 0 0 0 0.28,2.67 1.74,1.74 0 0 0 1.69,1.36 1.55,1.55 0 0 0 0.37,0 1.74,1.74 0 0 0 1.33,-2.06 8.92,8.92 0 0 1 -0.3,-1.94 9.08,9.08 0 0 1 0.27,-2.2 1.74,1.74 0 0 0 -1.27,-2.1 z"
     class="a"
     inkscape:connector-curvature="0"
     style="fill:#28497c" /></g><g
   id="chat"
   transform="matrix(1.3541667,0,0,1.3541667,672.63216,177.10988)"><path
     id="path1071"
     d="M 45.41,6 H 8.59 A 5.61,5.61 0 0 0 3,11.59 V 33.41 A 5.61,5.61 0 0 0 8.59,39 H 16 v 9 A 12.07,12.07 0 0 0 27.6,39 H 45.41 A 5.61,5.61 0 0 0 51,33.41 V 11.59 A 5.61,5.61 0 0 0 45.41,6 Z M 48,33.41 A 2.59,2.59 0 0 1 45.41,36 H 25 a 9,9 0 0 1 -6,8.48 V 36 H 8.59 A 2.59,2.59 0 0 1 6,33.41 V 11.59 A 2.59,2.59 0 0 1 8.59,9 H 45.41 A 2.59,2.59 0 0 1 48,11.59 Z"
     class="cls-1"
     inkscape:connector-curvature="0"
     style="fill:#28497c" /><circle
     id="circle1073"
     r="4"
     cy="22"
     cx="15"
     class="cls-1"
     style="fill:#28497c" /><circle
     id="circle1075"
     r="4"
     cy="22"
     cx="27"
     class="cls-1"
     style="fill:#28497c" /><circle
     id="circle1077"
     r="4"
     cy="22"
     cx="39"
     class="cls-1"
     style="fill:#28497c" /></g><g
   style="fill:#24437c;shape-rendering:geometricPrecision"
   id="g1118"
   transform="matrix(2.8771065,0,0,2.8771065,426.17016,17.901422)"><path
     id="path1104"
     d="m 7.999,3.007 -7.298,2.584 3.152,1.699 4,-1.688 0.663,0.303 -3.996,1.746 3.479,1.873 7.3,-3.933 z M 3.336,7.813 1.644,8.415 3.091,9.194 3.336,9.327 Z"
     inkscape:connector-curvature="0" /><path
     id="path1106"
     d="M 12.661,7.813 7.999,10.325 4.998,8.708 v 1.514 l 3.001,1.617 4.692,-2.529 1.665,-0.895 z m -8.762,4.729 0.608,0.451 V 7.663 L 3.899,7.296 Z"
     inkscape:connector-curvature="0" /></g><g
   id="courseware"
   transform="matrix(1.3758599,0,0,1.3758599,231.26299,37.170666)"><polygon
     id="polygon1124"
     points="30.85,9.37 27,6 23.14,9.37 27,11.16 "
     class="cls-1"
     style="fill:#28497c" /><polygon
     id="polygon1126"
     points="16.43,15.24 27.05,21.56 37.56,15.24 33.71,11.87 27,15.22 20.28,11.87 "
     class="cls-1"
     style="fill:#28497c" /><polygon
     id="polygon1128"
     points="9.72,21.12 27.05,34.5 44.27,21.12 40.42,17.75 27.05,26.97 13.57,17.75 "
     class="cls-1"
     style="fill:#28497c" /><polygon
     id="polygon1130"
     points="27,47.98 50.98,26.99 47.13,23.62 27.05,40.33 6.86,23.62 3.01,26.99 "
     class="cls-1"
     style="fill:#28497c" /></g><g
   id="admin"
   transform="matrix(0.87422497,0,0,0.87422497,139.29864,94.812338)"><path
     id="path1148"
     d="m 50.58,22.76 -0.95,-0.4 a 3.12,3.12 0 0 1 0,-5.8 l 0.95,-0.41 v 0 a 0.69,0.69 0 0 0 0.37,-0.89 v 0 l -0.7,-1.69 -1.13,-2.75 A 0.71,0.71 0 0 0 49,10.6 0.67,0.67 0 0 0 48.26,10.45 v 0 l -0.95,0.39 A 3.05,3.05 0 0 1 43.88,10.19 3.15,3.15 0 0 1 43.23,6.74 l 0.4,-1 A 0.69,0.69 0 0 0 43.27,4.85 l -4.45,-1.8 a 0.67,0.67 0 0 0 -0.88,0.37 l -0.41,1 a 3.08,3.08 0 0 1 -5.75,0 l -0.41,-1 A 0.68,0.68 0 0 0 30.48,3.05 L 26.07,4.9 A 0.68,0.68 0 0 0 25.7,5.79 l 0.39,1 A 3.1,3.1 0 0 1 22,10.85 v 0 l -0.95,-0.4 a 0.68,0.68 0 0 0 -0.89,0.37 l -1.83,4.44 a 0.69,0.69 0 0 0 0.37,0.89 l 1,0.41 a 3.12,3.12 0 0 1 0,5.79 l -0.95,0.42 a 0.69,0.69 0 0 0 -0.38,0.89 l 1.83,4.44 a 0.7,0.7 0 0 0 0.89,0.37 l 1,-0.4 a 3.05,3.05 0 0 1 3.42,0.65 3.12,3.12 0 0 1 0.64,3.45 v 0 l -0.4,1 a 0.68,0.68 0 0 0 0.37,0.89 l 4.41,1.84 a 0.68,0.68 0 0 0 0.89,-0.36 l 0.4,-1 a 3.08,3.08 0 0 1 5.76,0 l 0.4,1 a 0.68,0.68 0 0 0 0.89,0.36 L 43.23,34 a 0.68,0.68 0 0 0 0.37,-0.89 l -0.4,-1 v 0 a 3.15,3.15 0 0 1 0.65,-3.45 3.06,3.06 0 0 1 3.42,-0.65 v 0 l 0.95,0.4 a 0.69,0.69 0 0 0 0.89,-0.37 L 51,23.65 A 0.69,0.69 0 0 0 50.58,22.76 Z M 36.89,24.9 a 5.84,5.84 0 0 1 -7.65,-3.19 5.91,5.91 0 0 1 3.17,-7.71 5.84,5.84 0 0 1 7.65,3.18 5.91,5.91 0 0 1 -3.17,7.72 z"
     class="cls-1"
     inkscape:connector-curvature="0"
     style="fill:#28497c" /><path
     id="path1150"
     d="M 25.82,37.11 H 25.1 a 2.14,2.14 0 0 1 -2,-1.33 2.21,2.21 0 0 1 0.5,-2.41 l 0.51,-0.51 a 0.5,0.5 0 0 0 0,-0.68 L 21.75,29.8 a 0.46,0.46 0 0 0 -0.67,0 l -0.52,0.52 a 2.16,2.16 0 0 1 -2.39,0.5 2.19,2.19 0 0 1 -1.33,-2.06 V 28 A 0.47,0.47 0 0 0 16.37,27.52 H 13 a 0.48,0.48 0 0 0 -0.48,0.47 v 0.73 A 2.16,2.16 0 0 1 8.8,30.28 v 0 L 8.29,29.76 a 0.46,0.46 0 0 0 -0.67,0 l -2.38,2.41 a 0.48,0.48 0 0 0 0,0.68 l 0.5,0.51 a 2.19,2.19 0 0 1 0.5,2.41 2.14,2.14 0 0 1 -2,1.33 H 3.48 A 0.48,0.48 0 0 0 3,37.58 V 41 a 0.48,0.48 0 0 0 0.48,0.48 H 4.2 a 2.15,2.15 0 0 1 2,1.34 2.17,2.17 0 0 1 -0.5,2.4 v 0 l -0.51,0.52 a 0.48,0.48 0 0 0 0,0.67 l 2.36,2.38 a 0.46,0.46 0 0 0 0.67,0 l 0.52,-0.51 a 2.16,2.16 0 0 1 2.39,-0.5 2.18,2.18 0 0 1 1.37,2.02 v 0.72 0 A 0.49,0.49 0 0 0 13,51 h 3.34 a 0.47,0.47 0 0 0 0.48,-0.48 v 0 -0.72 a 2.18,2.18 0 0 1 1.33,-2.06 2.16,2.16 0 0 1 2.39,0.5 l 0.51,0.52 a 0.46,0.46 0 0 0 0.67,0 l 2.37,-2.38 a 0.48,0.48 0 0 0 0,-0.67 l -0.51,-0.53 a 2.19,2.19 0 0 1 -0.5,-2.4 2.15,2.15 0 0 1 2,-1.34 H 25.8 A 0.48,0.48 0 0 0 26.3,41 v -3.41 a 0.47,0.47 0 0 0 -0.48,-0.48 z m -11.17,6.28 a 4.12,4.12 0 1 1 4.09,-4.12 4.1,4.1 0 0 1 -4.09,4.12 z"
     class="cls-1"
     inkscape:connector-curvature="0"
     style="fill:#28497c" /></g></svg>