<svg width="16" height="16" xmlns="http://www.w3.org/2000/svg" viewBox="0 0 54 54"><path d="M4.76 17.82 50.48 13l-.54-5.17a2.07 2.07 0 0 0-2-1.85h-.22L5.09 10.49a2.07 2.07 0 0 0-1.84 2.27l.55 5.16v25.87A4.2 4.2 0 0 0 8 48h38.55a4.2 4.2 0 0 0 4.21-4.21v-26Zm5.94 3.36-3.53 3.53v-3.53Zm35.85 23.47H8a.86.86 0 0 1-.85-.86V27.88h1.58l6.71-6.7h3.19l-6.7 6.7h4.74l6.71-6.7h3.19l-6.71 6.7h4.74l6.71-6.7h3.2l-6.71 6.7h4.74l6.71-6.7h3.19l-6.71 6.7h4.75l6.7-6.7h.23v3l-3.74 3.73h3.74v15.88a.87.87 0 0 1-.86.86Z"/><path d="m22.26 43.02 10.06-6.71-10.06-6.71v13.42z"/></svg>